# Made in Blockbench 5.0.3
mtllib MetalCrate.mtl

o cuboid
v 0.75 1.5 0.75
v 0.75 1.5 -0.75
v 0.75 0 0.75
v 0.75 0 -0.75
v -0.75 1.5 0.75
v -0.75 1.5 -0.75
v -0.75 0 0.75
v -0.75 0 -0.75
v 0.75 1.625 0.75
v 0.75 1.625 -0.75
v -0.75 1.625 0.75
v -0.75 1.625 -0.75
v 0.7941941738241592 1.625 -0.7941941738241592
v 0.7941941738241592 1.625 0.7941941738241592
v 0.7941941738241592 1.5 0.7941941738241592
v 0.7941941738241592 1.5 -0.7941941738241592
v -0.7941941738241592 1.625 0.7941941738241592
v -0.7941941738241592 1.5 0.7941941738241592
v -0.7941941738241592 1.625 -0.7941941738241592
v -0.7941941738241592 1.5 -0.7941941738241592
vt 0.578125 0.984375
vt 0.390625 0.984375
vt 0.390625 0.8125
vt 0.578125 0.8125
vt 0.578125 0.8125
vt 0.578125 0.984375
vt 0.390625 0.984375
vt 0.390625 0.8125
vt 0.1953125 0.8125
vt 0.3828125 0.8125
vt 0.3828125 1
vt 0.1953125 1
vt 0.3828125 0.6171875
vt 0.3828125 0.8046875
vt 0.1953125 0.8046875
vt 0.1953125 0.6171875
vt 0.578125 0.8125
vt 0.578125 0.984375
vt 0.390625 0.984375
vt 0.390625 0.8125
vt 0.578125 0.984375
vt 0.390625 0.984375
vt 0.390625 0.8125
vt 0.578125 0.8125
vt 0.578125 1
vt 0.390625 1
vt 0.390625 0.984375
vt 0.578125 0.984375
vt 0.578125 1
vt 0.390625 1
vt 0.390625 0.984375
vt 0.578125 0.984375
vt 0.578125 1
vt 0.390625 1
vt 0.390625 0.984375
vt 0.578125 0.984375
vt 0.578125 1
vt 0.390625 1
vt 0.390625 0.984375
vt 0.578125 0.984375
vt 0.3994315059698327 0.9937943657009399
vt 0.4497459887028671 0.9927826549167381
vt 0.4483861516369661 0.9937943657009399
vt 0.40087147143484186 0.9947497787700447
vt 0.39237029668084156 0.9967640624999999
vt 0.39237029668084156 1
vt 0.3922802631009433 0.9999099664201018
vt 0.3922802631009433 0.9968540960798983
vt 0.3906249999999998 0.99447578125
vt 0.5188609374999997 0.99447578125
vt 0.5152930254112363 1
vt 0.3941929120887631 1
vt 0.39386093749999973 1
vt 0.3906249999999998 1
vt 0.390715033579898 0.9999099664201018
vt 0.3937709039201015 0.9999099664201018
vt 0.4498427127801671 0.9951571967990601
vt 0.39952823004713267 0.9961689075832618
vt 0.40088806711303365 0.99515719679906
vt 0.4484027473151579 0.9942017837299553
vt 0.3921529351701015 1
vt 0.3921529351701015 0.9967640624999999
vt 0.39224296874999975 0.9968540960798983
vt 0.39224296874999975 0.9999099664201018
vt 0.49542343749999973 1
vt 0.3906249999999998 1
vt 0.39354080986835094 0.99447578125
vt 0.49250762763164857 0.99447578125
vt 0.3906249999999998 0.99978263848926
vt 0.39386093749999973 0.99978263848926
vt 0.3937709039201015 0.9998726720691582
vt 0.390715033579898 0.9998726720691582
vn 1 0 0
vn -1 0 0
vn 0 1 0
vn 0 -1 0
vn 0 0 1
vn 0 0 -1
vn 0 0 1
vn 1 0 0
vn 0 0 -1
vn -1 0 0
vn 0 1 0
vn 0 -1 0
vn 0 1 0
vn 0 -1 0
vn 0 1 0
vn 0 -1 0
vn 0 1 0
vn 0 -1 0
usemtl m_33b92085-0c03-029b-a762-8786b711ca1c
f 2/1/1 1/2/1 3/3/1 4/4/1
f 7/5/2 5/6/2 6/7/2 8/8/2
f 11/9/3 9/10/3 10/11/3 12/12/3
f 4/13/4 3/14/4 7/15/4 8/16/4
f 3/17/5 1/18/5 5/19/5 7/20/5
f 6/21/6 2/22/6 4/23/6 8/24/6
f 14/25/7 17/26/7 18/27/7 15/28/7
f 13/29/8 14/30/8 15/31/8 16/32/8
f 19/33/9 13/34/9 16/35/9 20/36/9
f 17/37/10 19/38/10 20/39/10 18/40/10
f 14/41/11 13/42/11 10/43/11 9/44/11
f 16/45/12 15/46/12 1/47/12 2/48/12
f 17/49/13 14/50/13 9/51/13 11/52/13
f 15/53/14 18/54/14 5/55/14 1/56/14
f 19/57/15 17/58/15 11/59/15 12/60/15
f 18/61/16 20/62/16 6/63/16 5/64/16
f 13/65/17 19/66/17 12/67/17 10/68/17
f 20/69/18 16/70/18 2/71/18 6/72/18